<?xml version="1.0" encoding="UTF-8"?>
<svg xmlns="http://www.w3.org/2000/svg" xmlns:xlink="http://www.w3.org/1999/xlink" viewBox="0 0 50 50" width="50px" height="50px">
<g id="surface208087452">
<path style="fill-rule:nonzero;fill:rgb(80.000001%,80.000001%,80.000001%);fill-opacity:1;stroke-width:14;stroke-linecap:butt;stroke-linejoin:round;stroke:rgb(20%,20%,20%);stroke-opacity:1;stroke-miterlimit:10;" d="M 85.999999 81.06081 L 145.444593 21.601689 L 150.398309 26.555405 L 90.939188 85.999999 L 150.398309 145.444593 L 145.444593 150.398309 L 85.999999 90.939188 L 26.555405 150.398309 L 21.601689 145.444593 L 81.06081 85.999999 L 21.601689 26.555405 L 26.555405 21.601689 Z M 85.999999 81.06081 " transform="matrix(0.268895,0,0,0.268895,1.875,1.875)"/>
<path style=" stroke:none;fill-rule:nonzero;fill:rgb(80.000001%,80.000001%,80.000001%);fill-opacity:1;" d="M 9.015625 7.683594 L 7.683594 9.015625 L 23.671875 25 L 7.683594 40.984375 L 9.015625 42.316406 L 25 26.328125 L 40.984375 42.316406 L 42.316406 40.984375 L 26.328125 25 L 42.316406 9.015625 L 40.984375 7.683594 L 25 23.671875 Z M 9.015625 7.683594 "/>
</g>
</svg>
