<?xml version="1.0" encoding="UTF-8" standalone="no"?>
<svg
   xmlns:dc="http://purl.org/dc/elements/1.1/"
   xmlns:cc="http://creativecommons.org/ns#"
   xmlns:rdf="http://www.w3.org/1999/02/22-rdf-syntax-ns#"
   xmlns:svg="http://www.w3.org/2000/svg"
   xmlns="http://www.w3.org/2000/svg"
   xmlns:sodipodi="http://sodipodi.sourceforge.net/DTD/sodipodi-0.dtd"
   xmlns:inkscape="http://www.inkscape.org/namespaces/inkscape"
   version="1.1"
   id="svg3264"
   width="36"
   height="36"
   viewBox="0 0 36 36"
   sodipodi:docname="icon_gachinder.svg"
   inkscape:version="1.0.2 (e86c870879, 2021-01-15)">
  <metadata
     id="metadata3270">
    <rdf:RDF>
      <cc:Work
         rdf:about="">
        <dc:format>image/svg+xml</dc:format>
        <dc:type
           rdf:resource="http://purl.org/dc/dcmitype/StillImage" />
        <dc:title />
      </cc:Work>
    </rdf:RDF>
  </metadata>
  <defs
     id="defs3268" />
  <sodipodi:namedview
     pagecolor="#ffffff"
     bordercolor="#666666"
     borderopacity="1"
     objecttolerance="10"
     gridtolerance="10"
     guidetolerance="10"
     inkscape:pageopacity="0"
     inkscape:pageshadow="2"
     inkscape:window-width="822"
     inkscape:window-height="480"
     id="namedview3266"
     showgrid="false"
     inkscape:zoom="2.7544578"
     inkscape:cx="80"
     inkscape:cy="22.459407"
     inkscape:window-x="0"
     inkscape:window-y="0"
     inkscape:window-maximized="0"
     inkscape:current-layer="g3272"
     inkscape:document-rotation="0" />
  <g
     inkscape:groupmode="layer"
     inkscape:label="Image"
     id="g3272">
    <g
       id="g4206"
       transform="matrix(0.22562048,0,0,0.22717686,0.03762426,0.07726263)">
      <path
         style="fill:#eba98e"
         d="m 69.5,159.52139 c -0.55,-0.1764 -4.308607,-1.08185 -8.35246,-2.01211 C 18.689508,147.7421 -7.0361776,107.01793 1.445493,63 7.3133448,32.547189 32.450192,7.4011567 63,1.4230019 122.03203,-10.128711 170.44497,38.703724 158.39346,97.643036 152.23019,127.78522 126.77501,152.73879 96.228092,158.58338 89.766526,159.81968 72.33726,160.43135 69.5,159.52139 Z"
         id="path4224" />
      <path
         style="fill:#da8e74"
         d="m 76.02168,158.04051 c -0.576778,-1.07772 -2.505111,-2.65409 -4.285184,-3.50304 C 66.178723,151.88686 58.845668,145.76011 53.139817,139 c -6.83116,-8.09334 -7.532293,-8.39096 -6.766496,-2.87223 0.333688,2.40473 0.790727,5.72223 1.015641,7.37223 0.224915,1.65 0.731893,4.0125 1.126618,5.25 1.785773,5.59856 -6.937548,2.44051 -17.580377,-6.36452 C 0.12649276,116.89681 -8.5040702,77.222368 9.218969,42.556587 14.398874,32.424834 29.917387,16.455259 40.136499,10.740406 82.842119,-13.141937 136.56917,5.2215438 154.60082,49.863403 c 12.68961,31.416307 1.30103,73.542047 -24.95685,92.314067 -2.82918,2.02262 -6.7254,4.82281 -8.65827,6.22266 -10.40618,7.53655 -42.416903,14.39971 -44.96402,9.64038 z M 80.5,135 c 0,-1.9972 -0.565237,-2.56481 -2.810472,-2.82226 -4.914774,-0.56354 -7.550925,3.12293 -3.439528,4.80994 3.835115,1.57365 6.25,0.80564 6.25,-1.98768 z m -9.087687,-12.25 c -0.564578,-1 -0.436381,-1 0.640983,0 C 73.627291,124.21097 83,124.45515 83,123.03518 83,121.35101 79.282177,120 74.647529,120 c -6.033346,0 -8.052823,0.80672 -6.550608,2.61678 1.447629,1.74429 4.289432,1.85848 3.315392,0.13322 z m 5.409702,-7.20129 c 3.835095,0.0296 5.532653,-0.24329 4.315372,-0.69359 -2.649831,-0.98024 -4.672739,-4.71977 -3.297245,-6.09526 1.550299,-1.5503 4.05623,-0.14705 5.294063,2.96451 0.687102,1.72719 1.290525,2.27041 1.597492,1.43813 0.271317,-0.73562 -0.0073,-1.83812 -0.619197,-2.45 C 83.500625,110.10062 83,108.8451 83,107.92244 c 0,-0.92265 -0.68999,-2.25019 -1.533311,-2.95009 -1.36627,-1.1339 -1.325666,-1.5013 0.372719,-3.37244 2.576498,-2.838577 3.043501,-4.640944 1.960071,-7.564773 -3.115063,-8.406557 4.595037,-33.01688 11.007447,-35.135321 4.446117,-1.468844 3.991943,-4.543792 -1.056926,-7.155828 -2.0625,-1.067035 -3.801309,-2.458447 -3.86402,-3.092026 -0.529958,-5.354225 -1.038042,-7.056773 -2.876363,-9.638456 -1.582801,-2.222839 -1.863444,-3.418115 -1.126056,-4.795937 0.540194,-1.009362 1.124881,-3.592935 1.299305,-5.741273 L 87.5,24.570226 82.346953,23.807291 c -4.573189,-0.677084 -5.810989,-0.429274 -11,2.20222 -3.215824,1.630835 -6.682598,2.970854 -7.703942,2.977822 -1.254744,0.0086 -1.666329,0.509518 -1.2691,1.54468 0.390758,1.018299 -0.244005,1.848298 -1.893011,2.475249 C 59.116405,33.526042 58,34.46042 58,35.083657 c 0,0.70581 -0.931882,0.899272 -2.470976,0.512984 C 53.199552,35.01198 49,40.601796 49,44.287102 c 0,0.501294 -1.621187,3.537975 -3.602639,6.74818 -3.304641,5.353942 -3.545725,6.250547 -2.914582,10.839504 0.403285,2.932237 0.189897,7.228774 -0.515584,10.381195 -2.626139,11.734827 1.449701,27.554103 8.5251,33.087879 1.999864,1.56413 4.129455,3.92663 4.732425,5.25 1.378755,3.02604 2.831276,3.03989 5.636609,0.0537 1.215476,-1.29382 3.995642,-2.8874 6.178146,-3.54129 3.07417,-0.92104 4.293774,-1.96813 5.41333,-4.64761 2.569307,-6.149216 6.433495,-3.321616 4.31166,3.15504 -1.10472,3.37203 -1.975207,4.15131 -6.766148,6.05727 -6.337099,2.52106 -8.362072,5.80189 -2.819571,4.56823 1.82669,-0.40659 6.166161,-0.71733 9.643269,-0.69054 z M 60.666667,75.333333 C 60.3,74.966667 60,73.841667 60,72.833333 c 0,-2.162262 -0.377416,-2.239091 -2.988609,-0.608374 -2.369157,1.479563 -4.629228,-0.172519 -3.666855,-2.680423 0.636684,-1.65917 1.22248,-1.949073 6.14133,-3.039264 2.694348,-0.597163 2.803084,-0.764063 1.113721,-1.709478 -1.297594,-0.72617 -2.908257,-0.729714 -5.248258,-0.01155 -7.972581,2.446855 -11.706415,-1.750558 -5.659819,-6.362521 6.244583,-4.762976 25.222642,-2.023277 28.192383,4.069892 1.765878,3.623141 -0.48556,5.738049 -5.121444,4.810872 C 70.05331,66.760662 69.835623,66.906735 70.45307,68.852136 71.021527,70.643185 70.734932,71 68.727903,71 c -1.596911,0 -2.790196,0.841301 -3.545949,2.5 -1.096079,2.405631 -3.120868,3.227752 -4.515287,1.833333 z M 35.365474,86.25 c -0.39318,-16.589461 -0.90578,-19.933612 -3.247586,-21.186908 -1.974471,-1.056705 -4.170679,2.34781 -5.541899,8.590934 -0.978134,4.453413 2.005256,19.106674 4.694381,23.056989 3.917135,5.754255 4.447317,4.399905 4.095104,-10.461015 z m 71.030786,8.159758 C 107.15525,92.431855 106.33417,91 104.44098,91 103.64844,91 103,91.825 103,92.833333 c 0,3.238846 2.3413,4.325596 3.39626,1.576425 z m -4.3493,-9.033275 c 0.79413,-2.088723 0.65589,-2.873276 -0.67815,-3.848754 -0.92159,-0.67388 -2.394082,-2.723106 -3.272211,-4.553835 -2.013386,-4.197519 -3.706899,-4.792812 -4.332009,-1.52276 -0.533041,2.788426 1.221055,6.824298 4.476156,10.298866 2.624394,2.801341 2.598154,2.803916 3.806214,-0.373517 z"
         id="path4222" />
      <path
         style="fill:#817882"
         d="m 94.148826,155.75 c -0.77494,-0.77421 -4.181582,-1.26729 -8.95,-1.29542 C 71.580904,154.37424 61.992229,148.76217 51.5,134.7313 41.37806,121.19561 40.083723,120.99289 42.975809,133.39625 c 3.073414,13.18103 2.841647,17.01724 -0.981907,16.25253 C 38.192419,148.88848 24.288245,137.44656 18.436906,130.26343 -1.885546,105.31549 -5.4632272,71.274562 9.218969,42.556587 14.398874,32.424834 29.917387,16.455259 40.136499,10.740406 82.842119,-13.141937 136.56917,5.2215438 154.60082,49.863403 c 5.55332,13.748632 6.9672,33.631793 3.39381,47.726634 -4.98487,19.662333 -22.89024,45.618883 -30.46939,44.170033 -1.86085,-0.35572 -2.51413,0.0595 -2.97358,1.89013 -0.75347,3.00207 -6.77287,6.96525 -12.55166,8.26405 -2.475,0.55626 -6.28265,1.92812 -8.46144,3.04857 -4.532373,2.33078 -7.588253,2.58697 -9.389734,0.78718 z M 78.094127,142.37442 c 5.772346,-1.88804 7.012946,-3.61582 6.033804,-8.40329 -0.578987,-2.83093 -1.248456,-3.55897 -3.656139,-3.97602 C 75.62965,129.15639 75.918804,126 80.837782,126 c 3.263839,0 4.476725,-0.58506 6.706514,-3.23501 1.497147,-1.77926 3.399066,-3.24176 4.226489,-3.25 2.686541,-0.0268 4.019886,-3.54442 1.845251,-4.86817 C 89.23481,111.97986 86,108.69422 86,106.91111 86,105.86 85.49754,105 84.883423,105 c -0.72709,0 -0.863804,-0.95926 -0.391929,-2.75 0.398557,-1.5125 0.865982,-5.225 1.038723,-8.25 0.757238,-13.260601 2.245946,-21.132834 4.437572,-23.465713 1.194129,-1.271092 2.086566,-2.923798 1.983194,-3.672681 -0.506048,-3.666098 0.274867,-5.058025 3.622421,-6.456723 1.965372,-0.821185 4.450486,-1.214689 5.522476,-0.874453 1.07198,0.340235 3.286,0.32497 4.92002,-0.03392 3.54861,-0.779406 3.02428,-2.409666 -2.42947,-7.553787 C 99.229755,47.833395 98.749986,45.813747 100.01374,36.903085 101.63711,25.456869 100.32592,24.0344 86.255371,21.977013 78.137615,20.79004 78.022092,20.804168 70.608136,23.890606 65.996586,25.810398 61.408817,27 58.616571,27 50.237516,27 45,31.913568 45,39.774367 45,42.057201 44.046492,46.473453 42.881094,49.588259 36.446271,66.786863 41.203552,124.5 49.056051,124.5 c 0.794172,0 1.583465,-0.97982 1.753983,-2.17738 C 51.616252,116.66054 57,119.9578 57,126.11365 c 0,0.47817 0.9,1.43146 2,2.11842 1.1,0.68696 2,1.79994 2,2.47329 0,0.67335 0.921626,1.71751 2.048058,2.32036 1.359527,0.7276 1.853413,1.70936 1.469083,2.92027 -0.901373,2.83998 1.525172,7.27621 3.672772,6.7146 0.994452,-0.26006 2.060101,-0.0651 2.368108,0.43329 0.773016,1.25077 1.817287,1.15107 7.536106,-0.71946 z M 60.473103,71.915256 c -0.511702,-1.612231 -1.206935,-1.947892 -3.067387,-1.480948 -3.978555,0.998554 -2.705451,-1.257059 1.344284,-2.381727 7.424355,-2.061846 10.424338,-0.77448 7.740467,3.321624 -2.064395,3.150665 -5.102406,3.423828 -6.017364,0.541051 z M 61.5,63.487803 c -1.65,-0.768677 -4.210942,-1.417892 -5.690983,-1.442699 -3.302405,-0.05535 -4.417969,-1.606436 -2.67009,-3.712501 2.808354,-3.383859 21.405808,0.571904 20.679037,4.398526 C 73.383334,65.019557 65.78932,65.486046 61.5,63.487803 Z m 39.31642,42.253647 c 0.3365,-2.91541 1.98016,-3.45587 5.2264,-1.71853 3.04644,1.6304 5.48086,-1.78434 7.3901,-10.366005 2.0041,-9.008069 1.81757,-15.362062 -0.43292,-14.746891 -4.9966,1.365817 -8,1.252957 -8,-0.300618 0,-1.840033 -1.64133,-2.18543 -2.21447,-0.466008 -0.28583,0.857489 -0.91486,0.857755 -2.5156,0.0011 -2.346342,-1.255722 -4.120831,-5.360826 -2.544436,-5.886291 0.544987,-0.181663 1.8422,-0.974756 2.882696,-1.762429 1.74944,-1.324357 1.60576,-1.434527 -1.909217,-1.463937 -4.554463,-0.03811 -7.448184,4.836424 -6.173151,10.398798 0.38697,1.688169 0.855749,4.869399 1.041731,7.069399 0.185982,2.2 0.593593,6.78024 0.905803,10.17831 0.344423,3.748682 0.166339,6.426342 -0.452851,6.809022 -1.909826,1.18033 -1.0987,4.35816 1.229495,4.8169 4.038297,0.7957 5.24279,0.24115 5.56642,-2.56278 z M 36.180628,86.486204 C 35.837771,71.471514 34.919336,66.00787 32.38461,63.904235 27.322119,59.70274 23.624492,83.535909 28.006613,92.122757 c 6.731343,13.190193 8.574891,11.918933 8.174015,-5.636553 z"
         id="path4220" />
      <path
         style="fill:#7d7882"
         d="m 94.148826,155.75 c -0.77494,-0.77421 -4.181582,-1.26729 -8.95,-1.29542 -13.899736,-0.082 -23.123874,-5.63277 -34.48386,-20.75121 -3.185163,-4.23897 -6.899052,-8.43311 -8.253086,-9.3203 C 41.014,123.43438 40,121.81196 40,120.44401 c 0,-1.27929 -0.388242,-2.56592 -0.86276,-2.85919 -1.579018,-0.97589 -2.126172,10.50591 -0.667063,13.99805 0.747787,1.7897 1.09791,3.51571 0.778051,3.83557 C 38.928369,135.7383 39.36139,136 40.210496,136 c 1.224659,0 1.470821,-0.98201 1.190685,-4.75 -0.314982,-4.23669 -0.14404,-3.93952 1.581845,2.75 2.484701,9.63067 2.675314,16.46661 0.435187,15.60699 C 42.548229,149.27314 41.384241,149 40.831572,149 40.278903,149 34.254585,143.41167 27.4442,136.58149 14.851306,123.952 7.6194178,112.71073 5.518428,102.5 4.2900543,96.530153 2.6856546,92.076242 1.9314601,92.54236 0.72776688,93.286283 -0.32941983,80.42582 0.37858718,73.651975 2.2878237,55.385385 13.659944,32.081489 23.689546,25.882854 25.599273,24.702578 27.462877,22.949158 27.830888,21.986365 28.56896,20.055418 36.644099,13 38.116054,13 38.625809,13 40.75028,11.870097 42.837101,10.489104 47.020898,7.720398 56.294263,4.1427743 62.5,2.9032439 64.7,2.463817 68.906244,1.5625426 71.847208,0.90041189 c 4.255917,-0.95818 5.505945,-0.94703286 6.125,0.0546197 0.551092,0.89168571 0.97716,0.93591021 1.461809,0.15173101 0.742947,-1.20211278 4.457605,-1.46931768 6.978452,-0.50197786 0.866824,0.33263164 1.327071,1.00763166 1.02277,1.50000006 -0.769182,1.2445641 3.931146,1.1288301 5.187711,-0.1277346 0.697266,-0.6972663 2.183411,-0.5380779 4.667881,0.5 C 99.295543,3.3146726 101.85494,4 102.97837,4 c 7.44624,0 30.00787,14.621125 38.45867,24.923252 15.52453,18.925492 23.43524,52.234102 16.21699,68.282771 -0.81485,1.811687 -2.02547,5.093977 -2.69028,7.293977 -4.02093,13.30624 -22.43495,38.21656 -27.53016,37.24255 -1.75875,-0.3362 -2.43033,0.10834 -2.88193,1.90765 -0.75347,3.00207 -6.77287,6.96525 -12.55166,8.26405 -2.475,0.55626 -6.28265,1.92812 -8.46144,3.04857 -4.532373,2.33078 -7.588253,2.58697 -9.389734,0.78718 z M 78.094127,142.37442 c 5.772346,-1.88804 7.012946,-3.61582 6.033804,-8.40329 -0.578987,-2.83093 -1.248456,-3.55897 -3.656139,-3.97602 C 75.62965,129.15639 75.918804,126 80.837782,126 c 3.263839,0 4.476725,-0.58506 6.706514,-3.23501 1.497147,-1.77926 3.399066,-3.24176 4.226489,-3.25 2.686541,-0.0268 4.019886,-3.54442 1.845251,-4.86817 C 89.23481,111.97986 86,108.69422 86,106.91111 86,105.86 85.49754,105 84.883423,105 c -0.72709,0 -0.863804,-0.95926 -0.391929,-2.75 0.398557,-1.5125 0.865982,-5.225 1.038723,-8.25 0.757238,-13.260601 2.245946,-21.132834 4.437572,-23.465713 1.194129,-1.271092 2.086566,-2.923798 1.983194,-3.672681 -0.506048,-3.666098 0.274867,-5.058025 3.622421,-6.456723 1.965372,-0.821185 4.450486,-1.214689 5.522476,-0.874453 1.07198,0.340235 3.286,0.32497 4.92002,-0.03392 3.54861,-0.779406 3.02428,-2.409666 -2.42947,-7.553787 C 99.229755,47.833395 98.749986,45.813747 100.01374,36.903085 101.63711,25.456869 100.32592,24.0344 86.255371,21.977013 78.137615,20.79004 78.022092,20.804168 70.608136,23.890606 65.996586,25.810398 61.408817,27 58.616571,27 50.237516,27 45,31.913568 45,39.774367 45,42.057201 44.046492,46.473453 42.881094,49.588259 36.446271,66.786863 41.203552,124.5 49.056051,124.5 c 0.794172,0 1.583465,-0.97982 1.753983,-2.17738 C 51.616252,116.66054 57,119.9578 57,126.11365 c 0,0.47817 0.9,1.43146 2,2.11842 1.1,0.68696 2,1.79994 2,2.47329 0,0.67335 0.921626,1.71751 2.048058,2.32036 1.359527,0.7276 1.853413,1.70936 1.469083,2.92027 -0.901373,2.83998 1.525172,7.27621 3.672772,6.7146 0.994452,-0.26006 2.060101,-0.0651 2.368108,0.43329 0.773016,1.25077 1.817287,1.15107 7.536106,-0.71946 z M 55,69.814856 C 55,68.604625 63.080496,66.803387 65.634288,67.444348 68.386636,68.135144 68.810005,69.956723 66.25,70.0935 58.189035,70.524187 55,70.4452 55,69.814856 Z m 6.5,-6.327053 c -1.65,-0.768677 -4.210942,-1.417892 -5.690983,-1.442699 -3.302405,-0.05535 -4.417969,-1.606436 -2.67009,-3.712501 2.808354,-3.383859 21.405808,0.571904 20.679037,4.398526 C 73.383334,65.019557 65.78932,65.486046 61.5,63.487803 Z M 36.508217,92.25 C 36.186802,83.0375 35.716837,73.851209 35.46385,71.836019 34.914424,67.459506 30.229504,57.740125 29.027463,58.483027 27.639261,59.340983 25,57.900321 25,56.284603 c 0,-1.111424 0.664742,-1.334579 2.559154,-0.859112 2.478435,0.622047 2.549403,0.507185 2.25,-3.641592 C 29.561263,48.348908 29.153216,47.558227 27.75,47.793837 26.747316,47.962194 26,47.463323 26,46.625624 26,45.821497 25.726855,44.451771 25.393011,43.581787 25.059167,42.711804 25.253843,42 25.825624,42 c 0.57178,0 1.35861,1.005109 1.74851,2.233577 l 0.70891,2.233576 0.894585,-2.418292 c 1.135798,-3.070355 0.350749,-5.188849 -1.639775,-4.425013 -0.920835,0.353357 -1.53171,0.04568 -1.522541,-0.766859 0.02161,-1.915203 1.543555,-4.090994 2.582795,-3.692399 C 29.079084,35.349065 29.634952,34.6 29.83337,33.5 c 0.288269,-1.598122 0.104909,-1.753607 -0.912512,-0.773794 -0.881791,0.849198 -1.652911,0.911133 -2.508037,0.201442 -0.858182,-0.712228 -1.466746,-0.649413 -1.995395,0.20596 -0.740371,1.197946 -0.96185,2.500154 -2.018231,11.866392 -0.279146,2.475 -0.747316,6.56009 -1.040379,9.077977 -0.478386,4.110122 -0.268455,4.75121 2.054172,6.273053 3.791714,2.484427 3.391287,7.684956 -0.434087,5.637678 C 21.011403,64.935735 20.049723,67.037778 20,72.5 19.9483,78.179035 18.978533,80 16.005813,80 c -1.518508,0 -3.378524,0.745585 -4.133368,1.656856 -1.249678,1.508648 -1.033291,1.59335 2.419041,0.946904 l 3.791486,-0.709952 -0.651715,4.912872 c -0.871951,6.573086 0.582109,9.340647 4.496227,8.557823 2.24451,-0.448902 3.131481,-0.122843 3.980304,1.463198 1.498815,2.80056 1.479298,2.84171 -1.907788,4.022459 -2.808687,0.97911 -3.996994,3.41563 -2.205744,4.52268 0.43684,0.26999 2.671837,-0.34974 4.966659,-1.37716 l 4.172404,-1.86804 0.644631,3.43618 C 32.102792,108.36147 32.675071,109 34.657595,109 h 2.435014 z m 64.308203,13.49145 c 0.3365,-2.91541 1.98016,-3.45587 5.2264,-1.71853 3.04644,1.6304 5.48086,-1.78434 7.3901,-10.366005 2.0041,-9.008069 1.81757,-15.362062 -0.43292,-14.746891 -6.37248,1.741916 -8.29604,1.405641 -7.60937,-1.330266 0.94126,-3.750302 -0.17496,-5.084909 -2.49604,-2.984365 -1.04877,0.949123 -2.16286,1.469672 -2.47576,1.156774 -1.279978,-1.279982 -1.009679,-4.329897 0.48482,-5.470364 1.34307,-1.024914 0.99327,-1.223242 -2.204677,-1.25 -4.554463,-0.03811 -7.448184,4.836424 -6.173151,10.398798 0.38697,1.688169 0.855749,4.869399 1.041731,7.069399 0.185982,2.2 0.593593,6.78024 0.905803,10.17831 0.344423,3.74868 0.166339,6.42634 -0.452851,6.80902 -1.909826,1.18033 -1.0987,4.35816 1.229495,4.8169 4.038297,0.7957 5.24279,0.24115 5.56642,-2.56278 z M 29.610466,25.427274 C 29.309233,24.642273 28.598646,24 28.031385,24 c -1.409562,0 -1.297227,2.596347 0.218615,5.052734 1.246938,2.020634 1.250806,2.020422 1.579081,-0.08629 0.180995,-1.16154 0.08262,-2.754164 -0.218615,-3.539165 z"
         id="path4218" />
      <path
         style="fill:#a46b5c"
         d="m 94.148826,155.75 c -0.77494,-0.77421 -4.181582,-1.26729 -8.95,-1.29542 -13.899736,-0.082 -23.123874,-5.63277 -34.48386,-20.75121 -3.185163,-4.23897 -6.899052,-8.43311 -8.253086,-9.3203 C 41.002154,123.42662 40,121.81345 40,120.42017 c 0,-1.30705 -0.866182,-2.81337 -1.951902,-3.39443 -1.672488,-0.89509 -1.892189,-1.86639 -1.534764,-6.78518 C 37.524833,96.320545 35.443873,68.734267 33.041579,64.217201 30.961949,60.306845 30.740604,58.428274 30.496287,42.615125 30.340705,32.545215 29.771507,24.441575 29.136433,23.254928 28.040759,21.207642 35.134087,13 37.999097,13 38.573178,13 40.75028,11.870097 42.837101,10.489104 47.020898,7.720398 56.294263,4.1427743 62.5,2.9032439 64.7,2.463817 68.906244,1.5625426 71.847208,0.90041189 c 4.255917,-0.95818 5.505945,-0.94703286 6.125,0.0546197 0.551092,0.89168571 0.97716,0.93591021 1.461809,0.15173101 0.742947,-1.20211278 4.457605,-1.46931768 6.978452,-0.50197786 0.866824,0.33263164 1.35869,0.95647106 1.093035,1.38630986 -0.897709,1.4525227 3.5182,1.8423439 4.925719,0.4348256 1.194721,-1.1947212 1.90859,-1.1818839 4.95029,0.089019 C 99.33635,3.3317229 101.85494,4 102.97837,4 c 1.12343,0 6.87539,2.3372405 12.78212,5.1938677 19.90721,9.6275703 34.98628,27.9644123 41.42471,50.3743403 3.23231,11.250537 3.31894,30.792921 0.16852,38.01299 -1.18046,2.705342 -3.3943,8.016782 -4.91964,11.803202 -3.16394,7.85395 -7.93205,15.29339 -13.55773,21.15345 -2.13199,2.22082 -3.87635,4.49913 -3.87635,5.06291 0,2.09739 -5.85185,6.67125 -7.86254,6.14544 -1.47144,-0.38479 -2.13133,0.0933 -2.57636,1.86636 -0.76188,3.0356 -6.75564,6.9969 -12.5611,8.30169 -2.475,0.55626 -6.28265,1.92812 -8.46144,3.04857 -4.532373,2.33078 -7.588253,2.58697 -9.389734,0.78718 z M 78.094127,142.37442 c 5.772346,-1.88804 7.012946,-3.61582 6.033804,-8.40329 -0.578987,-2.83093 -1.248456,-3.55897 -3.656139,-3.97602 C 75.62965,129.15639 75.918804,126 80.837782,126 c 3.263839,0 4.476725,-0.58506 6.706514,-3.23501 1.497147,-1.77926 3.399066,-3.24176 4.226489,-3.25 2.686541,-0.0268 4.019886,-3.54442 1.845251,-4.86817 C 89.23481,111.97986 86,108.69422 86,106.91111 86,105.86 85.49754,105 84.883423,105 c -0.72709,0 -0.863804,-0.95926 -0.391929,-2.75 0.398557,-1.5125 0.865982,-5.225 1.038723,-8.25 0.757238,-13.260601 2.245946,-21.132834 4.437572,-23.465713 1.194129,-1.271092 2.086566,-2.923798 1.983194,-3.672681 -0.506048,-3.666098 0.274867,-5.058025 3.622421,-6.456723 1.965372,-0.821185 4.450486,-1.214689 5.522476,-0.874453 1.07198,0.340235 3.286,0.32497 4.92002,-0.03392 3.54861,-0.779406 3.02428,-2.409666 -2.42947,-7.553787 C 99.229755,47.833395 98.749986,45.813747 100.01374,36.903085 101.63711,25.456869 100.32592,24.0344 86.255371,21.977013 78.137615,20.79004 78.022092,20.804168 70.608136,23.890606 65.996586,25.810398 61.408817,27 58.616571,27 50.237516,27 45,31.913568 45,39.774367 45,42.057201 44.046492,46.473453 42.881094,49.588259 36.446271,66.786863 41.203552,124.5 49.056051,124.5 c 0.794172,0 1.583465,-0.97982 1.753983,-2.17738 C 51.616252,116.66054 57,119.9578 57,126.11365 c 0,0.47817 0.9,1.43146 2,2.11842 1.1,0.68696 2,1.79994 2,2.47329 0,0.67335 0.921626,1.71751 2.048058,2.32036 1.359527,0.7276 1.853413,1.70936 1.469083,2.92027 -0.901373,2.83998 1.525172,7.27621 3.672772,6.7146 0.994452,-0.26006 2.060101,-0.0651 2.368108,0.43329 0.773016,1.25077 1.817287,1.15107 7.536106,-0.71946 z M 55,69.814856 C 55,68.604625 63.080496,66.803387 65.634288,67.444348 68.386636,68.135144 68.810005,69.956723 66.25,70.0935 58.189035,70.524187 55,70.4452 55,69.814856 Z m 6.5,-6.327053 c -1.65,-0.768677 -4.210942,-1.417892 -5.690983,-1.442699 -3.302405,-0.05535 -4.417969,-1.606436 -2.67009,-3.712501 2.808354,-3.383859 21.405808,0.571904 20.679037,4.398526 C 73.383334,65.019557 65.78932,65.486046 61.5,63.487803 Z m 73.14421,67.011487 C 134.72765,129.05329 134.24595,128 133.5012,128 c -1.78625,0 -2.58104,2.52016 -1.22306,3.87814 1.68333,1.68333 2.20699,1.37816 2.36607,-1.37885 z M 129,125.58179 C 129,122.17707 128.01106,120 126.46444,120 c -0.72687,0 -2.01015,-0.68857 -2.85174,-1.53015 -1.37354,-1.37354 -1.69545,-1.2105 -3.14516,1.59293 -1.81949,3.5185 -1.84865,3.45483 2.70334,5.90222 4.63273,2.4908 5.82912,2.41215 5.82912,-0.38321 z m -28.18358,-19.84034 c 0.3365,-2.91541 1.98016,-3.45587 5.2264,-1.71853 3.04644,1.6304 5.48086,-1.78434 7.3901,-10.366005 2.0041,-9.008069 1.81757,-15.362062 -0.43292,-14.746891 -6.37248,1.741916 -8.29604,1.405641 -7.60937,-1.330266 C 106.31708,73.888484 105.22719,72.484421 103,74.5 c -1.45161,1.313688 -1.9634,1.374888 -2.63541,0.315143 -1.24728,-1.966931 -1.083991,-3.180901 0.60977,-4.53334 1.26785,-1.012352 0.88336,-1.22357 -2.275387,-1.25 -4.554463,-0.03811 -7.448184,4.836424 -6.173151,10.398798 0.38697,1.688169 0.855749,4.869399 1.041731,7.069399 0.185982,2.2 0.593593,6.78024 0.905803,10.17831 0.344423,3.74868 0.166339,6.42634 -0.452851,6.80902 -1.909826,1.18033 -1.0987,4.35816 1.229495,4.8169 4.038297,0.7957 5.24279,0.24115 5.56642,-2.56278 z M 40,148.24845 c -4.673278,-2.33457 -5.117548,-5.8406 -1.262969,-9.96694 2.347894,-2.51343 2.795815,-3.79517 2.58962,-7.4103 -0.210145,-3.68441 0.05241,-3.19281 1.671023,3.12879 1.954877,7.63488 2.60978,16.00126 1.252326,15.99845 -0.4125,-8.6e-4 -2.325,-0.78836 -4.25,-1.75 z M 16.080075,123.37467 C 13.910811,120.6169 13.224436,115 15.056704,115 c 0.592291,0 0.372545,-0.97677 -0.5,-2.22251 C 12.813836,110.2892 12.463429,104.44965 14,103.5 c 0.55,-0.33992 1,-1.94148 1,-3.559017 C 15,98.149844 15.523785,97 16.339699,97 c 2.314781,0 4.925101,27.10028 2.740376,28.45051 -0.505959,0.3127 -1.855959,-0.62143 -3,-2.07584 z M 0.50571395,86.649419 C -1.085423,74.421457 2.6866758,57.260553 10.117615,42.920736 16.372525,30.850356 24.000886,23.734848 22.629523,31.25 22.30334,33.0375 21.320841,40.8 20.44619,48.5 c -0.933295,8.216283 -2.211587,14.962901 -3.094219,16.330788 -0.82717,1.281934 -1.258875,2.969434 -0.959343,3.75 0.337681,0.879983 -0.108385,1.434148 -1.174013,1.458523 C 14.02245,70.066672 11.980025,73.362532 8.5,80.881132 5.75,86.822512 3.2169729,91.253903 2.8710509,90.728668 2.5156878,90.189098 2.0300241,90.366651 1.7545549,91.136847 1.4864041,91.886581 0.92442572,89.867239 0.50571395,86.649419 Z"
         id="path4216" />
      <path
         style="fill:#6e6163"
         d="m 76.5,151.88641 c -2.75,-0.55349 -5.365154,-1.36701 -5.811453,-1.80783 -0.890573,-0.87963 9.915719,-4.11932 15.001815,-4.49749 4.980977,-0.37035 6.1834,-2.01608 6.514118,-8.91576 0.162536,-3.39093 0.74552,-6.10229 1.29552,-6.02525 3.863972,0.54126 6.71849,-3.94276 6.289084,-9.87921 -0.390227,-5.39483 -0.227413,-6.02392 1.753996,-6.77725 1.20128,-0.45673 2.4564,-1.53988 2.78915,-2.40702 0.76452,-1.99231 3.04678,-2.02977 4.66777,-0.0766 3.07354,3.70339 4.33709,1.09187 8.01258,-16.560432 l 2.91831,-14.015755 -2.97404,-5.85253 C 113.31953,67.913519 110.61106,66 104.11697,66 98.322744,66 96,65.284603 96,63.5 c 0,-2.559019 11.52841,-2.775751 14.7062,-0.276474 2.20231,1.732084 3.29397,-0.276624 3.27849,-6.032543 -0.0184,-6.827812 -0.47281,-7.661334 -5.26974,-9.665616 -3.45817,-1.444915 -4.25949,-2.5195 -3.74746,-5.025367 1.26324,-6.182198 0.0261,-15.108779 -2.3809,-17.179179 C 94.954055,18.755593 68.939572,17.691814 61.921259,23.657944 61.032442,24.41351 58.024983,25 55.039336,25 c -4.737269,0 -5.645897,0.363384 -8.514779,3.405286 -4.8296,5.120867 -5.873028,9.766425 -7.157261,31.865616 -0.631901,10.873812 -1.593246,13.949295 -2.825558,9.039371 -0.369386,-1.471748 -1.711437,-3.911669 -2.982337,-5.422048 -2.597303,-3.08672 -4.405205,-21.103058 -3.082625,-30.719369 0.466974,-3.395306 0.215274,-5.970121 -0.827597,-8.466063 l -1.498666,-3.586811 4.402401,-4.057991 C 34.974234,14.826096 37.425016,13 37.999097,13 38.573178,13 40.75028,11.870097 42.837101,10.489104 47.020898,7.720398 56.294263,4.1427743 62.5,2.9032439 64.7,2.463817 68.906244,1.5625426 71.847208,0.90041189 c 4.255917,-0.95818 5.505945,-0.94703286 6.125,0.0546197 0.551092,0.89168571 0.97716,0.93591021 1.461809,0.15173101 0.742947,-1.20211278 4.457605,-1.46931768 6.978452,-0.50197786 0.866824,0.33263164 1.35869,0.95647106 1.093035,1.38630986 -0.897709,1.4525227 3.5182,1.8423439 4.925719,0.4348256 1.194721,-1.1947212 1.90859,-1.1818839 4.95029,0.089019 C 99.33635,3.3317229 101.85494,4 102.97837,4 c 1.12343,0 6.87539,2.3372405 12.78212,5.1938677 19.90721,9.6275703 34.98628,27.9644123 41.42471,50.3743403 3.23231,11.250537 3.31894,30.792921 0.16852,38.01299 -1.18046,2.705342 -3.3943,8.016782 -4.91964,11.803202 -3.16394,7.85395 -7.93205,15.29339 -13.55773,21.15345 -2.13199,2.22082 -3.87635,4.50488 -3.87635,5.07569 0,0.57081 -1.15409,2.12204 -2.56464,3.44719 l -2.56465,2.40936 -3.88347,-2.23505 c -5.37733,-3.09479 -5.75762,-2.90076 -5.22284,2.66485 0.4243,4.41571 0.21651,5.06651 -2.10281,6.58619 -2.87934,1.88661 -4.66159,1.32715 -4.66159,-1.46331 0,-6.36086 -2.93112,-6.46849 -7.42857,-0.27277 -3.25452,4.48345 -3.71802,4.75637 -8.259717,4.86345 -2.646442,0.0624 -7.511713,0.37576 -10.811713,0.69637 -3.3,0.32061 -8.25,0.13007 -11,-0.42341 z m 58.14421,-21.38712 C 134.72765,129.05329 134.24595,128 133.5012,128 c -1.78625,0 -2.58104,2.52016 -1.22306,3.87814 1.68333,1.68333 2.20699,1.37816 2.36607,-1.37885 z M 129,125.58179 C 129,122.17707 128.01106,120 126.46444,120 c -0.72687,0 -2.01015,-0.68857 -2.85174,-1.53015 -1.37354,-1.37354 -1.69545,-1.2105 -3.14516,1.59293 -1.81949,3.5185 -1.84865,3.45483 2.70334,5.90222 4.63273,2.4908 5.82912,2.41215 5.82912,-0.38321 z M 38.222506,147.4433 c -2.77649,-1.94473 -2.827841,-4.78444 -0.154412,-8.53893 2.742021,-3.85081 3.649699,-3.66612 4.905664,0.99817 1.830348,6.7974 -0.509851,10.51155 -4.751252,7.54076 z M 16.080075,123.37467 C 13.910811,120.6169 13.224436,115 15.056704,115 c 0.592291,0 0.372545,-0.97677 -0.5,-2.22251 C 12.813836,110.2892 12.463429,104.44965 14,103.5 c 0.55,-0.33992 1,-1.94148 1,-3.559017 C 15,98.149844 15.523785,97 16.339699,97 c 2.314781,0 4.925101,27.10028 2.740376,28.45051 -0.505959,0.3127 -1.855959,-0.62143 -3,-2.07584 z m 20.666851,-7.07188 c -0.442861,-0.81476 -0.388902,-3.97522 0.1759,-10.30279 0.299157,-3.3515 0.353061,-3.28786 1.270491,1.5 1.408798,7.35221 1.431396,8.75409 0.148324,9.20158 -0.637098,0.22219 -1.35472,0.0427 -1.594715,-0.39879 z M 90.25,97.960056 C 87.973765,95.151306 87.255433,92 88.89142,92 c 0.847399,0 4.513148,7.982035 3.900426,8.49304 C 92.631331,100.6269 91.4875,99.487063 90.25,97.960056 Z M 0.50571395,86.649419 C -1.085423,74.421457 2.6866758,57.260553 10.117615,42.920736 16.372525,30.850356 24.000886,23.734848 22.629523,31.25 22.30334,33.0375 21.320841,40.8 20.44619,48.5 c -0.933295,8.216283 -2.211587,14.962901 -3.094219,16.330788 -0.82717,1.281934 -1.258875,2.969434 -0.959343,3.75 0.337681,0.879983 -0.108385,1.434148 -1.174013,1.458523 C 14.02245,70.066672 11.980025,73.362532 8.5,80.881132 5.75,86.822512 3.2169729,91.253903 2.8710509,90.728668 2.5156878,90.189098 2.0300241,90.366651 1.7545549,91.136847 1.4864041,91.886581 0.92442572,89.867239 0.50571395,86.649419 Z M 100.14135,74.670322 C 98.81086,73.067174 99.620261,72 102.16667,72 c 2.16873,0 2.37876,1.302445 0.46601,2.889886 -1.03293,0.857253 -1.64221,0.803556 -2.49133,-0.219564 z"
         id="path4214" />
      <path
         style="fill:#63453a"
         d="M 77.64991,151.95096 C 69.481275,150.58034 68.960967,149.88713 75,148.42048 c 3.025,-0.73466 7.379839,-1.35481 9.67742,-1.37811 6.09559,-0.0618 8.728427,-3.61369 7.999889,-10.79237 -0.490148,-4.82969 0.310551,-6.69669 1.822691,-4.25 2.281784,3.692 6.07294,-4.40784 5.73365,-12.25 -0.19509,-4.50914 0.069,-5.75 1.2236,-5.75 0.80981,0 1.95405,-0.9 2.54275,-2 0.5887,-1.1 1.7137,-2 2.5,-2 0.7863,0 1.9113,0.9 2.5,2 2.87289,5.36804 4.17873,2.47291 8.4798,-18.800244 l 2.4869,-12.300243 -2.65114,-5.199757 c -4.49044,-8.80719 -12.25986,-13.548942 -17.445299,-10.647027 -2.14106,1.198198 -4.724586,-0.598404 -3.139653,-2.183337 1.448605,-1.448605 12.122002,-1.236607 13.945772,0.276994 2.06825,1.716493 3.32362,-0.03534 3.32362,-4.638015 0,-3.495337 0.40162,-4.501064 2,-5.008371 1.1,-0.349126 2,-1.081009 2,-1.626405 0,-0.545396 -0.4542,-0.710919 -1.00933,-0.367829 -0.55513,0.34309 -1.79263,-0.752507 -2.75,-2.43466 -1.45193,-2.551125 -2.35954,-3.05951 -5.47154,-3.064783 L 105.03826,46 105.64423,41.579008 C 107.53829,27.760299 104.88444,24.061846 90.427283,20.37241 86.617277,19.400105 82.557456,17.78083 81.405457,16.774021 79.380738,15.004484 76,15.212732 76,17.106989 76,17.598145 74.897361,18 73.54969,18 c -1.34767,0 -2.889247,0.784337 -3.425726,1.742972 -0.905406,1.61787 -1.203089,1.574645 -4.147465,-0.602226 C 62.450841,16.534114 61.311241,17.056219 60.826947,21.5 60.508304,24.423804 60.377422,24.492175 55.673876,24.191916 50.27671,23.847379 42,29.183658 42,33.007933 42,34.038651 41.55,35.160081 41,35.5 c -0.55,0.339919 -1,1.661376 -1,2.936572 0,1.275196 -0.675,2.878739 -1.5,3.563428 -1.608163,1.334657 -2.095356,7 -0.601967,7 1.159039,0 1.339688,20.735046 0.186856,21.447536 -0.479348,0.296253 -1.179605,-0.695748 -1.556126,-2.204447 -0.376522,-1.508699 -1.312468,-3.4402 -2.079881,-4.292224 C 32.511009,61.799332 30.663592,44.063983 31.450354,35.164771 31.859036,30.542094 31.670953,26.533006 30.941742,24.323477 29.635342,20.365045 34.222533,14 38.381716,14 39.475876,14 41.357544,13.073282 42.5632,11.940627 45.026261,9.6267014 58.177435,4 61.122665,4 c 1.54643,0 1.793931,0.4841259 1.28472,2.512986 C 61.711297,9.2864203 63.366408,12 65.754114,12 c 1.175315,0 1.39427,-0.857047 0.989647,-3.8737354 -0.614682,-4.582798 1.186774,-6.6474045 6.703107,-7.68227477 3.394432,-0.63679927 3.554321,-0.53877236 3.579741,2.19471927 L 77.053219,5.5 78.758226,2.75 c 3.10233,-5.0037351 6.231675,-3.7607922 6.294226,2.5 0.0506,5.0645 0.107908,5.1705 1.621972,3 C 87.53766,7.0125 88.722554,6 89.307521,6 c 0.584967,0 2.00695,-0.8862536 3.159963,-1.9694524 1.918938,-1.8027486 2.336131,-1.8450709 4.928758,-0.5 C 98.954046,4.3387464 101.57841,5 103.22815,5 c 1.64975,0 4.63581,0.8539845 6.6357,1.8977433 C 111.86373,7.9415021 115.975,9.9451394 119,11.350271 135.83586,19.170632 151.03766,38.957404 157.14493,61 c 3.15188,11.375881 3.40163,29.990734 0.46256,34.476304 l -1.89251,2.88832 -2.60749,-3.028208 C 134.95723,74.257625 129.76784,68.947784 128.41488,70.070645 126.58675,71.587853 126.59015,74 128.42041,74 c 3.15903,0 3.19093,18.498064 0.0391,22.657767 -0.76774,1.013228 -1.41019,2.567856 -1.42769,3.454733 -0.0175,0.88687 -1.3818,3.31124 -3.0318,5.3875 -1.65,2.07626 -3,4.85259 -3,6.16962 0,1.31704 -0.675,4.01012 -1.5,5.98462 -2.32746,5.57041 -1.92907,6.92267 2.75,9.3344 6.69092,3.44869 9.8181,6.86063 9.0984,9.9269 -0.96541,4.11308 -1.72414,4.29257 -6.60764,1.56313 l -4.60614,-2.57442 0.55261,5.35429 c 0.51329,4.97323 0.36415,5.47778 -2.09555,7.08943 -3.33861,2.18754 -4.59168,1.42764 -4.59168,-2.78454 0,-6.45004 -2.41237,-6.31901 -6.96025,0.37804 -4.03401,5.94034 -5.66661,7.03167 -7.610789,5.08749 -0.628052,-0.62805 -2.697523,-0.45144 -5.858931,0.5 -5.297948,1.59445 -8.436709,1.67765 -15.92012,0.422 z m -39.480385,-5.61252 c -1.194942,-2.13524 1.272319,-7.69116 3.139137,-7.06889 1.930962,0.64366 1.511614,8.14138 -0.476764,8.52431 -0.917456,0.17668 -2.115524,-0.47825 -2.662373,-1.45542 z M 90.25,97.960056 C 87.973765,95.151306 87.255433,92 88.89142,92 c 0.847399,0 4.513148,7.982035 3.900426,8.49304 C 92.631331,100.6269 91.4875,99.487063 90.25,97.960056 Z M 0.5476534,85.333844 C -0.19110107,82.390411 0.86872267,67.817695 1.881011,67 2.221455,66.725 3.3005558,63.35 4.2790128,59.5 6.4477927,50.966357 13.131973,37.147187 16.665836,33.890931 L 19.260602,31.5 18.584764,38.597623 C 17.651373,48.400062 9.8919958,71.780518 3.7317759,83.35246 1.2568852,88.001529 1.2225607,88.022888 0.5476534,85.333844 Z"
         id="path4212" />
      <path
         style="fill:#4f322b"
         d="m 86,150.02568 c 0,-0.53588 1.37691,-1.68635 3.059801,-2.5566 1.979635,-1.02371 3.746303,-3.18383 5.004466,-6.11901 1.069565,-2.49519 2.832818,-5.28222 3.918338,-6.19339 C 99.875585,133.56773 103,123.82579 103,119.51241 c 0,-6.61222 5.17512,-7.47503 6.81756,-1.13665 1.28577,4.96193 3.5201,3.87303 4.87485,-2.37576 6.87051,-31.690194 7.36506,-36.078416 4.50241,-39.950366 -2.13336,-2.885518 -4.34739,-12.199867 -3.29593,-13.865849 C 116.2295,61.659954 117.4,61.058868 118.5,60.848038 121.12349,60.345212 121.61866,41.230264 119.11778,37 115.07625,30.163705 100.12562,20 94.111091,20 c -2.868489,0 -7.379447,-5.79465 -6.6801,-8.581071 0.908271,-3.6188396 6.445322,-8.592961 8.750874,-7.8612074 1.368793,0.434438 1.746779,1.1252153 1.249027,2.28262 C 97.038329,6.7531537 96.520176,8.85 96.279441,10.5 95.842321,13.496022 95.847116,13.494033 99.895452,9 l 4.053708,-4.5 5.27542,2.592104 c 2.90148,1.4256572 7.9099,3.900657 11.12981,5.5 23.71297,11.778306 41.8343,45.779012 39.20329,73.556379 C 158.60516,96.204905 156.81291,98.606074 153.32404,94.5 144.41298,84.012504 129.78596,68 129.11696,68 c -1.929,0 -3.31372,5.382958 -1.69012,6.570162 C 131.51458,77.559189 130.17803,94 125.84729,94 c -2.30542,0 -3.5548,2.692494 -1.98007,4.267217 1.59196,1.591965 1.40822,4.770943 -0.39064,6.758663 C 121.81105,106.86627 118,119.57934 118,123.29489 c 0,1.72772 0.97506,2.75041 3.81837,4.00488 4.87661,2.15155 7.75177,5.33975 8.52236,9.45023 0.76508,4.08114 -0.20789,4.11859 -6.49515,0.25 -6.14063,-3.77837 -5.7699,-3.92892 -5.5405,2.25 0.26259,7.07265 -1.19899,7.44956 -3.19597,0.82416 l -1.63541,-5.42583 -2.77316,3.29571 c -1.52524,1.81265 -3.44338,4.59177 -4.26253,6.17584 -1.41483,2.73598 -2.40614,3.30901 -5.13329,2.96733 -0.6574,-0.0824 -2.90074,0.76432 -4.985191,1.88152 C 92.389383,151.07516 86,151.72958 86,150.02568 Z m -46.956087,-3.47277 c -0.876441,-1.05604 -0.896671,-1.95952 -0.07812,-3.48899 C 40.550918,140.10208 42,140.52095 42,143.94098 c 0,3.46645 -1.29631,4.61184 -2.956087,2.61193 z M 0.65336208,82.248145 C 0.29904799,81.674853 0.3159555,78.346992 0.69093433,74.852898 1.2176757,69.944664 1.5350709,69.068506 2.086677,71 c 0.6205423,2.17288 0.7270059,2.016074 0.813643,-1.198378 0.1997511,-7.411267 9.694207,-32.196924 13.152068,-34.334 1.866489,-1.153553 -0.07395,8.373396 -3.203379,15.727565 -1.566955,3.682353 -2.8517813,7.507353 -2.8551697,8.5 -0.00339,0.992647 -0.6783884,3.093751 -1.5,4.66912 C 7.6722277,65.939676 7,68.016039 7,68.978446 7,71.67796 1.3812179,83.425841 0.65336208,82.248145 Z M 34.75,61.027494 c -1.835966,-2.593965 -2.378809,-8.520834 -0.866056,-9.455768 1.363886,-0.842927 3.298534,4.793064 2.938259,8.559693 L 36.5,63.5 Z M 32.998517,48.498214 C 32.055381,47.361803 31.855749,44.339979 32.250518,37.17578 32.647561,29.97031 32.416038,26.516443 31.369079,24.026461 30.003399,20.778465 30.602616,19.076498 33.133369,19.015313 33.481721,19.006891 34.002093,18.1 34.289749,17 34.97551,14.377646 38,14.377646 38,17 c 0,1.398096 0.677142,2.009457 2.25,2.031425 1.250293,0.01746 3.10144,1.198707 4.166301,2.658578 l 1.916301,2.627154 -2.599169,2.235711 c -1.429542,1.229641 -2.966878,2.39578 -3.416301,2.591421 -1.483666,0.645864 -4.555391,10.269143 -4.844935,15.178498 -0.3317,5.624146 -0.723079,6.284771 -2.47368,4.175427 z M 49.571429,18.428571 C 47.40215,16.259293 47.602842,14 49.964816,14 c 2.117014,0 4.513901,3.416402 3.522411,5.020667 -0.865802,1.400898 -2.111103,1.2126 -3.915798,-0.592096 z m 6.803775,-3.413417 C 54.687836,14.333731 51.132816,8 52.437713,8 c 1.278638,0 5.981381,3.153328 7.113708,4.769951 2.055765,2.935016 0.774557,3.840676 -3.176217,2.245203 z M 71.429071,12.484485 C 70.470431,10.190137 70.137769,7.649227 70.550189,5.7714894 71.001658,3.715968 70.780036,2.4753241 69.856892,1.8903928 c -0.999873,-0.6335496 -0.786403,-0.8637963 0.811321,-0.87508 1.192516,-0.00842 2.89995,-0.29610688 3.794296,-0.63929965 1.430208,-0.54882236 1.590633,0.31483409 1.331787,7.16974585 -0.33762,8.94106 -1.936921,10.750476 -4.365225,4.938726 z m 9.669708,1.872149 c -2.076168,-1.454205 -2.275367,-2.238581 -1.896983,-7.4696834 0.701151,-9.6933054 4.057966,-8.3481071 5.131817,2.0565059 0.667763,6.4699965 -0.03855,7.6519415 -3.234834,5.4131775 z M 58.404324,7.6112691 C 57.752345,5.9122371 58.628536,4 60.059017,4 c 1.261144,0 1.206604,3.7178035 -0.06608,4.5043651 -0.553884,0.3423194 -1.26876,-0.059574 -1.588613,-0.893096 z"
         id="path4210" />
      <path
         style="fill:#130a0a"
         d="m 94.566128,144.75 c 0.385497,-1.2375 2.020531,-3.92727 3.633409,-5.97726 1.796591,-2.2835 3.935223,-7.23981 5.521153,-12.79533 2.72957,-9.5617 3.83159,-10.21097 5.06528,-2.98428 0.93164,5.45735 2.60152,6.09202 4.80704,1.82701 1.70404,-3.29526 1.71414,-3.2989 2.74478,-0.98916 0.56894,1.27505 2.70374,3.16988 4.74399,4.21074 5.05026,2.57645 6.91822,4.63517 6.91822,7.62473 v 2.52359 l -4.25,-2.45337 c -7.44137,-4.29564 -9.18719,-4.28705 -14.00132,0.0689 -10.505979,9.50605 -16.447972,13.00664 -15.182552,8.94446 z M 117.18125,113.5 c 0.023,-5.08736 1.03296,-8.70635 2.31875,-8.30902 1.26079,0.38961 0.71842,5.36042 -1.01505,9.30284 l -1.3218,3.00618 z m 4.19041,-21.59521 c 1.95265,-10.321928 1.90199,-11.431265 -0.76221,-16.688794 -3.14253,-6.201489 -3.29987,-9.303726 -0.5587,-11.015615 1.93565,-1.208834 2.04048,-2.134345 1.86789,-16.490547 C 121.71368,30.661018 121.59587,30 118.76244,30 c -1.11297,0 -4.11206,-1.500425 -6.66465,-3.334278 -2.55259,-1.833852 -5.75633,-3.63708 -7.11943,-4.007173 -6.973516,-1.893368 -8.379299,-6.472196 -3.81169,-12.415185 3.70735,-4.8236894 6.22736,-5.6614675 5.24397,-1.743364 -0.62295,2.482039 0.83999,3.521515 2.09599,1.4892756 0.3981,-0.6441456 1.36787,-0.4901618 2.67382,0.4245614 1.12703,0.789407 2.65668,1.202158 3.3992,0.917223 1.63588,-0.627742 11.29074,4.713325 17.27384,9.555878 10.11173,8.18415 20.44202,24.881383 23.88923,38.613062 0.9665,3.85 2.20311,7.318511 2.74802,7.707803 1.98439,1.417682 1.22281,24.221501 -0.87912,26.323433 -1.82648,1.826481 -1.92868,1.80141 -4.40539,-1.080687 C 140.21092,77.328143 130.55987,67 129.42416,67 c -2.67522,0 -4.77077,5.822054 -3.04408,8.457329 3.07143,4.687585 1.88979,14.099452 -2.15774,17.186652 l -3.49478,2.665598 z M 119.38401,19.25 c 0.3395,-0.9625 0.87318,-2.293569 1.18594,-2.957932 0.37751,-0.801887 -0.47773,-0.685917 -2.54425,0.344995 -2.50468,1.249501 -2.88508,1.827451 -1.94686,2.957932 1.55656,1.875543 2.55883,1.770926 3.30517,-0.344995 z M 90.573204,15.141561 c -1.41339,-2.733196 -1.346735,-2.98435 1.521275,-5.7320774 L 95.09391,6.5358459 94.925583,10.517923 c -0.339259,8.025747 -1.793948,9.571098 -4.352379,4.623638 z M 80.630286,10.75 C 79.691892,7.248394 79.894562,3 81,3 c 0.55,0 1,0.84375 1,1.875 0,1.03125 0.28125,3.28125 0.625,5 0.718256,3.591281 -1.057972,4.37044 -1.994714,0.875 z"
         id="path4208" />
    </g>
  </g>
</svg>
